<svg width="33" height="33" viewBox="0 0 33 33" fill="none" xmlns="http://www.w3.org/2000/svg">
<g id="material-symbols:arrow-outward-rounded">
<path id="Vector" d="M21.7885 11.7686L9.78927 23.8016C9.51887 24.072 9.19754 24.2072 8.82528 24.2072C8.45302 24.2072 8.13214 24.072 7.86264 23.8016C7.59223 23.5312 7.45703 23.2099 7.45703 22.8376C7.45703 22.4654 7.59223 22.1445 7.86264 21.875L19.8957 9.87575H9.62027C9.2372 9.87575 8.91587 9.74595 8.65628 9.48636C8.39669 9.22678 8.26735 8.90589 8.26825 8.52372C8.26825 8.14065 8.39804 7.81932 8.65763 7.55973C8.91722 7.30014 9.2381 7.1708 9.62027 7.1717L23.1405 7.1717C23.5236 7.1717 23.8449 7.30149 24.1045 7.56108C24.3641 7.82067 24.4935 8.14155 24.4926 8.52372V22.044C24.4926 22.4271 24.3628 22.7484 24.1032 23.008C23.8436 23.2676 23.5227 23.3969 23.1405 23.396C22.7575 23.396 22.4361 23.2662 22.1765 23.0066C21.9169 22.747 21.7876 22.4262 21.7885 22.044V11.7686Z" fill="white"/>
</g>
</svg>
